<svg xmlns="http://www.w3.org/2000/svg" width="24" height="24" fill="#181717" viewBox="0 0 24 24">
  <path d="M12 .5C5.7.5.5 5.7.5 12c0 5.1 3.3 9.4 7.9 10.9.6.1.8-.3.8-.6v-2.2c-3.2.7-3.9-1.5-3.9-1.5-.5-1.2-1.2-1.5-1.2-1.5-1-.7.1-.7.1-.7 1.1.1 1.7 1.2 1.7 1.2 1 .1.8-.7.8-.7-.6-.1-1.2-.3-1.7-.6-.8-.5-1.3-1.3-1.3-2.4 0-1.7.6-2.8 1.6-3.6-.2-.4-.7-1.7.2-3.5 0 0 1.3-.4 3.6 1.4a12.4 12.4 0 0 1 6.6 0c2.3-1.8 3.6-1.4 3.6-1.4.9 1.8.4 3.1.2 3.5 1 1 1.6 2 1.6 3.6 0 1.1-.5 1.9-1.3 2.4-.5.3-1.1.5-1.7.6 0 0-.2.8.8.7 0 0 .6-1.1 1.7-1.2 0 0 1.1 0 .1.7 0 0-.7.3-1.2 1.5 0 0-.7 2.2-3.9 1.5v2.2c0 .3.2.7.8.6A10.5 10.5 0 0 0 23.5 12C23.5 5.7 18.3.5 12 .5z"/>
</svg>
