<svg xmlns="http://www.w3.org/2000/svg" width="24" height="24" fill="#E4405F" viewBox="0 0 24 24">
  <path d="M12 2.2c3.2 0 3.6 0 4.9.1 1.2.1 2 .3 2.5.6.6.3 1 .7 1.3 1.3.3.5.5 1.3.6 2.5.1 1.3.1 1.7.1 4.9s0 3.6-.1 4.9c-.1 1.2-.3 2-.6 2.5-.3.6-.7 1-1.3 1.3-.5.3-1.3.5-2.5.6-1.3.1-1.7.1-4.9.1s-3.6 0-4.9-.1c-1.2-.1-2-.3-2.5-.6-.6-.3-1-.7-1.3-1.3-.3-.5-.5-1.3-.6-2.5C2.2 15.6 2.2 15.2 2.2 12s0-3.6.1-4.9c.1-1.2.3-2 .6-2.5.3-.6.7-1 1.3-1.3.5-.3 1.3-.5 2.5-.6C8.4 2.2 8.8 2.2 12 2.2zm0 1.8c-3.1 0-3.5 0-4.7.1-1 .1-1.6.2-2 .4-.5.2-.8.5-1.1 1.1-.2.4-.3 1-.4 2-.1 1.2-.1 1.6-.1 4.7s0 3.5.1 4.7c.1 1 .2 1.6.4 2 .2.5.5.8 1.1 1.1.4.2 1 .3 2 .4 1.2.1 1.6.1 4.7.1s3.5 0 4.7-.1c1-.1 1.6-.2 2-.4.5-.2.8-.5 1.1-1.1.2-.4.3-1 .4-2 .1-1.2.1-1.6.1-4.7s0-3.5-.1-4.7c-.1-1-.2-1.6-.4-2-.2-.5-.5-.8-1.1-1.1-.4-.2-1-.3-2-.4-1.2-.1-1.6-.1-4.7-.1zm0 3.8a5.2 5.2 0 1 1 0 10.4 5.2 5.2 0 0 1 0-10.4zm0 1.8a3.4 3.4 0 1 0 0 6.8 3.4 3.4 0 0 0 0-6.8zm5.4-2.6a1.2 1.2 0 1 1-2.4 0 1.2 1.2 0 0 1 2.4 0z"/>
</svg>